<?xml version="1.0"?>
<svg xmlns="http://www.w3.org/2000/svg" height="512px" viewBox="0 0 512 512" width="512px" class=""><g><g id="Flat"><rect fill="#348fd9" height="464" rx="32" width="256" x="128" y="24" data-original="#348FD9" class="active-path" style="fill:#007BFF" data-old_color="#348fd9"/><path d="m352 24h-15.239l-177.761 463.975c.334.01.667.025 1 .025h192a32 32 0 0 0 32-32v-400a32 32 0 0 0 -32-32z" fill="#3086cd" data-original="#3086CD" class=""/><path d="m216 40h80l8-16h-96z" fill="#2a71ad" data-original="#2A71AD"/><path d="m464 208h-64l-72 32 16-32h-16a24 24 0 0 1 -24-24v-64a24 24 0 0 1 24-24h136a24 24 0 0 1 24 24v64a24 24 0 0 1 -24 24z" fill="#ffb531" data-original="#FFB531" class=""/><path d="m336 128h24v16h-24z" fill="#f98500" data-original="#F98500" class=""/><path d="m336 160h120v16h-120z" fill="#f98500" data-original="#F98500" class=""/><path d="m376 128h80v16h-80z" fill="#f98500" data-original="#F98500" class=""/><path d="m48 400h88l72 32-16-32h16a24 24 0 0 0 24-24v-64a24 24 0 0 0 -24-24h-160a24 24 0 0 0 -24 24v64a24 24 0 0 0 24 24z" fill="#a0dde5" data-original="#A0DDE5" class=""/><path d="m104 320h96v16h-96z" fill="#78c2cc" data-original="#78C2CC"/><path d="m168 352h32v16h-32z" fill="#78c2cc" data-original="#78C2CC"/><path d="m56 352h96v16h-96z" fill="#78c2cc" data-original="#78C2CC"/><path d="m56 320h32v16h-32z" fill="#78c2cc" data-original="#78C2CC"/><path d="m192 184h48v56h-48z" fill="#ffb531" data-original="#FFB531" class=""/><g fill="#f98500"><path d="m200 168h32v16h-32z" data-original="#F98500" class=""/><path d="m192 240h-32v-24a32 32 0 0 1 32-32z" data-original="#F98500" class=""/><path d="m272 240h-32v-56a32 32 0 0 1 32 32z" data-original="#F98500" class=""/><path d="m172.354 128.875-19.01-28.437 13.312-8.875 19.011 28.437z" data-original="#F98500" class=""/><path d="m259.333 129.667-13.312-8.875 19.323-29.229 13.312 8.875z" data-original="#F98500" class=""/></g><rect fill="#ffb531" height="64" rx="32" width="96" x="168" y="104" data-original="#FFB531" class=""/><path d="m192 128h16v16h-16z" fill="#f98500" data-original="#F98500" class=""/><path d="m224 128h16v16h-16z" fill="#f98500" data-original="#F98500" class=""/><path d="m322.238 371.6a40 40 0 1 0 -36.476 0 48.007 48.007 0 0 0 -29.762 44.4v16h96v-16a48.007 48.007 0 0 0 -29.762-44.4z" fill="#78c2cc" data-original="#78C2CC"/><path d="m280 328h16v16h-16z" fill="#4d5e78" data-original="#4D5E78" class="" style="fill:#4D5E78"/><path d="m312 328h16v16h-16z" fill="#4d5e78" data-original="#4D5E78" class="" style="fill:#4D5E78"/></g></g> </svg>
